<svg xmlns="http://www.w3.org/2000/svg" version="1.1" xmlns:xlink="http://www.w3.org/1999/xlink" xmlns:svgjs="http://svgjs.dev/svgjs" width="1500" height="1500" viewBox="0 0 1500 1500"><rect width="1500" height="1500" fill="#ffffff"></rect><g transform="matrix(0.6666666666666666,0,0,0.6666666666666666,249.14916112806264,591.7726822863385)"><svg viewBox="0 0 381 120" data-background-color="#ffffff" preserveAspectRatio="xMidYMid meet" height="472" width="1500" xmlns="http://www.w3.org/2000/svg" xmlns:xlink="http://www.w3.org/1999/xlink"><g id="tight-bounds" transform="matrix(1,0,0,1,0.32416961020814483,0.3409262467353642)"><svg viewBox="0 0 380.35166077958917 119.31814750652929" height="119.31814750652929" width="380.35166077958917"><g><svg viewBox="0 0 380.35166077958917 119.31814750652929" height="119.31814750652929" width="380.35166077958917"><g><svg viewBox="0 0 380.35166077958917 119.31814750652929" height="119.31814750652929" width="380.35166077958917"><g id="textblocktransform"><svg viewBox="0 0 380.35166077958917 119.31814750652929" height="119.31814750652929" width="380.35166077958917" id="textblock"><g><svg viewBox="0 0 380.35166077958917 74.02350000000001" height="74.02350000000001" width="380.35166077958917"><g><svg><g></g><g></g></svg></g><g><svg><g><svg></svg></g><g></g></svg></g><g id="text-0"><svg viewBox="0 0 380.35166077958917 74.02350000000001" height="74.02350000000001" width="380.35166077958917"><g transform="matrix(1,0,0,1,0,0)"><svg width="269.6531701660156" viewBox="2.3416666666699997 -34.8 166.63833333333 45.75" height="74.02350000000001" data-palette-color="#4a596d"><path d="M14.35 0.4L10.35 0.4Q9.55 0.4 9.2-0.73 8.85-1.85 8.85-3.2L8.85-3.2Q8.85-4.55 9.03-6.23 9.2-7.9 9.55-10.8L9.55-10.8 11.7-29.8 5-28.35Q4.4-28.25 3.98-28.18 3.55-28.1 3.35-28.1L3.35-28.1Q2.8-28.1 2.55-28.45 2.3-28.8 2.35-29.3L2.35-29.3Q2.4-30.55 2.73-31.6 3.05-32.65 3.55-33.33 4.05-34 4.65-34L4.65-34 15.4-34Q19.25-34 21.43-34.15 23.6-34.3 24.68-34.43 25.75-34.55 26.3-34.55L26.3-34.55Q26.8-34.55 27-34.35 27.2-34.15 27.25-33.55L27.25-33.55Q27.3-32.55 26.98-31.45 26.65-30.35 26.13-29.58 25.6-28.8 25.05-28.8L25.05-28.8Q24.7-28.8 24-28.93 23.3-29.05 22.4-29.15L22.4-29.15 17.65-29.8 14.35 0.4ZM30.4-1.2L30.4-1.2 29.2-8.75Q31.05-13.55 32.97-17.07 34.9-20.6 36.9-22.55 38.9-24.5 40.95-24.5L40.95-24.5Q42.1-24.5 42.6-23.78 43.1-23.05 43.1-21.95L43.1-21.95Q43.1-20.95 42.87-20.03 42.65-19.1 42.22-18.5 41.8-17.9 41.2-17.9L41.2-17.9Q40.65-17.9 39.97-18.25 39.3-18.6 38.15-18.6L38.15-18.6Q37.4-18.6 36.25-17.05 35.1-15.5 33.87-12.93 32.65-10.35 31.7-7.28 30.75-4.2 30.4-1.2ZM26.2 0.7L26.2 0.7Q25.55 0.7 25.22 0.48 24.9 0.25 24.87-0.7 24.85-1.65 25.1-3.75L25.1-3.75 27.45-24.55 30.95-24.55Q31.7-24.55 32.3-23.45 32.9-22.35 32.9-20.95L32.9-20.95Q32.9-20.3 32.52-18.93 32.15-17.55 31.65-16.03 31.15-14.5 30.75-13.35L30.75-13.35 29.45-9.25 31.3-9.55 30.4-1.2Q30.35-0.7 29.8-0.33 29.25 0.05 28.52 0.28 27.8 0.5 27.15 0.6 26.5 0.7 26.2 0.7ZM49.24 0.8L45.74 0.8Q44.89 0.8 44.64-0.18 44.39-1.15 44.39-2.2L44.39-2.2Q44.39-4 44.57-5.4 44.74-6.8 44.95-8.5L44.95-8.5 46.74-24.55 50.24-24.55Q51.24-24.55 51.55-23.45 51.84-22.35 51.84-20.95L51.84-20.95Q51.84-20.25 51.74-19.48 51.64-18.7 51.45-17.1L51.45-17.1 50.49-8.95Q50.2-6.35 49.95-4.6 49.7-2.85 49.55-1.6 49.39-0.35 49.24 0.8L49.24 0.8ZM50.14-27.4L50.14-27.4Q48.74-27.4 47.72-28.35 46.7-29.3 46.7-30.85L46.7-30.85Q46.7-32.7 47.89-33.73 49.09-34.75 50.64-34.75L50.64-34.75Q52.09-34.75 53.07-33.9 54.05-33.05 54.05-31.35L54.05-31.35Q54.05-29.65 52.89-28.53 51.74-27.4 50.14-27.4ZM66.19 0.8L66.19 0.8Q64.04 0.8 62.27 0.23 60.49-0.35 59.24-0.95L59.24-0.95 60.84-5.85Q62.19-4.95 63.67-4.3 65.14-3.65 66.44-3.3 67.74-2.95 68.54-2.95L68.54-2.95Q70.09-2.95 71.34-4.33 72.59-5.7 73.32-8.15 74.04-10.6 74.04-13.7L74.04-13.7Q74.04-16.6 73.59-18.1 73.14-19.6 72.24-19.6L72.24-19.6Q71.64-19.6 69.97-18.23 68.29-16.85 65.97-13.43 63.64-10 61.04-3.85L61.04-3.85 59.94-8.3Q62.79-14.6 65.32-18.13 67.84-21.65 70.12-23.08 72.39-24.5 74.49-24.5L74.49-24.5Q77.59-24.5 78.64-22.15 79.69-19.8 79.69-15.85L79.69-15.85Q79.69-11 77.89-7.25 76.09-3.5 73.04-1.35 69.99 0.8 66.19 0.8ZM60.64 10.95L57.14 10.95Q56.34 10.95 55.87 10.28 55.39 9.6 55.22 8.7 55.04 7.8 55.04 7.05L55.04 7.05Q55.04 6.05 55.14 4.6 55.24 3.15 55.44 1.15L55.44 1.15 58.34-24.55 61.84-24.55Q62.54-24.55 62.97-23.95 63.39-23.35 63.59-22.53 63.79-21.7 63.79-20.95L63.79-20.95Q63.79-20 63.24-18.15 62.69-16.3 61.79-13.35L61.79-13.35 60.64-9.55 62.14-9.55 61.39-2.8 60.94-2.15 60.64 10.95ZM91.24 0.65L91.24 0.65Q86.99 0.65 84.34-0.7 81.69-2.05 81.69-4.2L81.69-4.2Q81.69-5.85 81.94-6.55 82.19-7.25 82.79-7.25L82.79-7.25Q83.19-7.25 84.04-6.65 84.89-6.05 86.12-5.3 87.34-4.55 88.87-3.95 90.39-3.35 92.19-3.35L92.19-3.35Q94.79-3.35 96.42-4.48 98.04-5.6 98.04-7.95L98.04-7.95Q98.04-10.2 96.99-11.35 95.94-12.5 93.84-13.85L93.84-13.85 90.69-15.85Q88.99-16.95 87.59-18.1 86.19-19.25 85.34-20.88 84.49-22.5 84.49-25L84.49-25Q84.49-28.1 86.09-30.3 87.69-32.5 90.49-33.65 93.29-34.8 96.89-34.8L96.89-34.8Q100.24-34.8 101.89-34.38 103.54-33.95 104.07-33.2 104.59-32.45 104.59-31.45L104.59-31.45Q104.59-30.05 104.19-29.33 103.79-28.6 103.34-28.6L103.34-28.6Q102.94-28.6 102.44-28.85 101.94-29.1 101.04-29.5L101.04-29.5Q100.34-29.85 98.82-30.33 97.29-30.8 95.64-30.8L95.64-30.8Q93.49-30.8 92.02-29.7 90.54-28.6 90.54-26.4L90.54-26.4Q90.54-24.35 91.64-23.18 92.74-22 94.59-21.1L94.59-21.1 97.34-19.8Q99.29-18.9 100.97-17.8 102.64-16.7 103.67-14.98 104.69-13.25 104.69-10.4L104.69-10.4Q104.69-5.1 101.04-2.23 97.39 0.65 91.24 0.65ZM112.79 0.8L112.79 0.8Q110.39 0.8 109.41-0.6 108.44-2 108.79-5L108.79-5 110.74-20.25 109.14-20.25Q108.39-20.25 108.39-21.05L108.39-21.05Q108.39-21.55 109.06-22.5 109.74-23.45 110.79-24.6 111.84-25.75 112.96-26.8 114.09-27.85 115.04-28.53 115.99-29.2 116.49-29.2L116.49-29.2Q117.04-29.2 117.24-28.78 117.44-28.35 117.34-27.7L117.34-27.7 116.89-23.75 122.49-23.75Q123.24-23.75 123.36-23.5 123.49-23.25 123.29-22.7L123.29-22.7Q122.69-21 122.16-20.63 121.64-20.25 120.24-20.25L120.24-20.25 116.24-20.25 114.99-9.55Q114.89-8.6 114.81-7.75 114.74-6.9 114.74-6.2L114.74-6.2Q114.74-5.05 115.29-4.58 115.84-4.1 117.09-4.1L117.09-4.1Q118.29-4.1 119.16-4.6 120.04-5.1 120.39-5.1L120.39-5.1Q120.79-5.1 120.79-4.6L120.79-4.6Q120.79-4.1 120.26-3.2 119.74-2.3 118.71-1.38 117.69-0.45 116.19 0.18 114.69 0.8 112.79 0.8ZM128.64 0.8L128.64 0.8Q125.84 0.8 124.64-1.48 123.44-3.75 123.44-7.85L123.44-7.85Q123.44-11.5 124.51-14.55 125.59-17.6 127.44-19.83 129.29-22.05 131.74-23.28 134.19-24.5 136.94-24.5L136.94-24.5Q139.09-24.5 140.86-23.93 142.64-23.35 143.89-22.75L143.89-22.75 142.44-17.5Q141.09-18.4 139.41-19.15 137.74-19.9 136.31-20.33 134.89-20.75 134.19-20.75L134.19-20.75Q132.79-20.75 131.61-19.38 130.44-18 129.76-15.58 129.09-13.15 129.09-10L129.09-10Q129.09-7.1 129.51-5.6 129.94-4.1 130.89-4.1L130.89-4.1Q131.54-4.1 133.09-5.58 134.64-7.05 136.84-10.5 139.04-13.95 141.49-19.85L141.49-19.85 142.89-15.4Q140.19-9.4 137.74-5.85 135.29-2.3 133.04-0.75 130.79 0.8 128.64 0.8ZM144.09 0.5L140.59 0.5Q139.59 0.5 139.39-0.48 139.19-1.45 139.19-2.55L139.19-2.55Q139.19-3.4 139.41-4.65 139.64-5.9 139.99-7.35 140.34-8.8 140.74-10.2L140.74-10.2 141.84-13.95 140.39-15.25 141.59-22.8Q143.19-23.05 144.41-23.45 145.64-23.85 146.46-24.15 147.29-24.45 147.64-24.45L147.64-24.45Q148.19-24.45 148.19-23.85L148.19-23.85Q148.19-23.6 147.56-21.73 146.94-19.85 146.21-16.95 145.49-14.05 145.14-10.65L145.14-10.65 144.09 0.5ZM156.28-1.2L156.28-1.2 155.08-8.75Q156.93-13.55 158.86-17.07 160.78-20.6 162.78-22.55 164.78-24.5 166.83-24.5L166.83-24.5Q167.98-24.5 168.48-23.78 168.98-23.05 168.98-21.95L168.98-21.95Q168.98-20.95 168.76-20.03 168.53-19.1 168.11-18.5 167.68-17.9 167.08-17.9L167.08-17.9Q166.53-17.9 165.86-18.25 165.18-18.6 164.03-18.6L164.03-18.6Q163.28-18.6 162.13-17.05 160.98-15.5 159.76-12.93 158.53-10.35 157.58-7.28 156.63-4.2 156.28-1.2ZM152.08 0.7L152.08 0.7Q151.43 0.7 151.11 0.48 150.78 0.25 150.76-0.7 150.73-1.65 150.98-3.75L150.98-3.75 153.33-24.55 156.83-24.55Q157.58-24.55 158.18-23.45 158.78-22.35 158.78-20.95L158.78-20.95Q158.78-20.3 158.41-18.93 158.03-17.55 157.53-16.03 157.03-14.5 156.63-13.35L156.63-13.35 155.33-9.25 157.18-9.55 156.28-1.2Q156.23-0.7 155.68-0.33 155.13 0.05 154.41 0.28 153.68 0.5 153.03 0.6 152.38 0.7 152.08 0.7Z" opacity="1" transform="matrix(1,0,0,1,0,0)" fill="#000000" class="wordmark-text-0" data-fill-palette-color="primary"></path></svg></g><g><svg xmlns="http://www.w3.org/2000/svg" xmlns:xlink="http://www.w3.org/1999/xlink" version="1.1" x="287.1296701660156" y="0" viewBox="2.636 11.36 84.727 67.278" enable-background="new 0 0 90 90" xml:space="preserve" height="74.02350000000001" width="93.22199061357354" class="icon-dxe-0" data-fill-palette-color="accent" id="dxe-0"><path d="M65.488 65.37A3.24 3.24 0 0 1 62.245 65.888 3.26 3.26 0 0 1 61.005 64.989 24.52 24.52 0 0 1 47.723 73.789C50.713 71.707 53.186 68.118 54.844 63.58H60.297C60.276 63.484 60.234 63.398 60.223 63.301L59.938 61.136H55.63C56.471 58.145 56.973 54.828 57.068 51.3H58.642L58.32 48.856H57.068A44 44 0 0 0 56.672 44.099C55.893 44.316 55.084 44.53 54.282 44.744 54.456 46.08 54.584 47.444 54.626 48.856H46.016L45.52 51.3H54.625C54.521 54.841 53.986 58.184 53.088 61.136H42.795V55.735L41.543 56.61C41.18 56.867 40.771 57.009 40.351 57.096V61.136H30.058A35 35 0 0 1 29.011 56.536C28.744 56.644 28.469 56.753 28.207 56.865 27.683 57.088 27.215 57.31 26.717 57.533 26.936 58.771 27.194 59.984 27.515 61.136H19.708V61.134A38 38 0 0 0 17.712 62.426 29 29 0 0 0 16.351 63.449C21.156 72.474 30.654 78.638 41.572 78.638 51.811 78.638 60.78 73.205 65.822 65.089zM21.114 63.58H28.302C29.963 68.118 32.432 71.707 35.423 73.789A24.54 24.54 0 0 1 21.114 63.58M40.351 73.266C36.468 72.621 33.081 68.944 30.93 63.58H40.351zM42.795 63.58H52.216C50.067 68.941 46.676 72.621 42.795 73.266z" fill="#000000" data-fill-palette-color="accent"></path><path d="M87.363 24.459C83.368 21.832 75.015 23.686 65.748 27.262L49.466 11.36 43.981 11.548 57.07 30.955C51.685 33.431 46.351 36.187 41.674 38.734L34.918 33.632 32.112 33.959 39.089 42.748 39.69 53.956 42.007 52.339 43.684 44.042C48.874 42.854 54.699 41.382 60.371 39.67L63.424 62.876 67.656 59.381 69.31 36.686C78.628 33.219 86.111 29.072 87.363 24.459" fill="#000000" data-fill-palette-color="accent"></path><path d="M48.527 24.071L47.179 22.072A28.7 28.7 0 0 0 41.569 21.512C27.307 21.512 15.487 32.031 13.377 45.711A87 87 0 0 1 18.398 42.21C18.768 41.113 19.187 40.037 19.706 39.016H23.639A140 140 0 0 1 28.045 36.572H21.112A24.54 24.54 0 0 1 35.422 26.363C33.83 27.473 32.39 29.02 31.135 30.901 31.332 30.838 31.528 30.771 31.739 30.748L34.545 30.421 34.597 30.42C36.294 28.503 38.244 27.236 40.349 26.888V33.682L41.964 34.903C42.246 34.752 42.513 34.619 42.793 34.468V26.888C45.166 27.281 47.353 28.821 49.189 31.173L52.355 29.668z" fill="#000000" data-fill-palette-color="accent"></path><path d="M35.919 43.951L31.522 38.413C28.535 39.944 25.2 41.758 21.715 43.93 17.823 46.376 13.737 49.2 9.99 52.799 8.13 54.612 6.342 56.627 4.892 59.057 4.175 60.274 3.553 61.606 3.125 63.048 3.01 63.401 2.933 63.781 2.845 64.149 2.798 64.332 2.776 64.524 2.741 64.712L2.639 65.393 2.636 66.225 2.659 67.451C2.766 68.928 3.16 70.5 3.944 71.871 4.71 73.254 5.86 74.317 7.004 74.999 9.331 76.362 11.513 76.585 13.392 76.696 17.165 76.811 20.061 76.196 22.087 75.794A80 80 0 0 0 23.699 75.433C17.819 75.124 14.156 73.714 12.189 72.646A8 8 0 0 1 10.661 71.669 5 5 0 0 1 10.344 71.406L10.382 71.403C10.261 71.288 10.12 71.18 10.018 71.057 9.132 69.998 9.109 69.036 9.423 67.656 9.477 67.514 9.524 67.385 9.563 67.251L9.802 66.452 9.81 66.429C9.832 66.304 9.788 66.57 9.794 66.535L9.807 66.507 9.829 66.444 9.873 66.323C9.906 66.244 9.924 66.164 9.965 66.081 10.044 65.918 10.098 65.755 10.193 65.59A10.4 10.4 0 0 1 11.541 63.582C12.668 62.239 14.193 60.953 15.864 59.778 19.236 57.427 23.173 55.502 26.949 53.893 30.233 52.499 33.404 51.37 36.266 50.42z" fill="#000000" data-fill-palette-color="accent"></path></svg></g></svg></g></svg></g><g transform="matrix(1,0,0,1,72.64716720890155,91.49867178600002)"><svg viewBox="0 0 235.05732636178607 27.819475720529272" height="27.819475720529272" width="235.05732636178607"><g transform="matrix(1,0,0,1,0,0)"><svg width="235.05732636178607" viewBox="0.7 -35.7 408.91 48.400000000000006" height="27.819475720529272" data-palette-color="#aab7c0"><path d="M16.8 12.7L16.8 12.7Q14.9 12.7 13.08 11.35 11.25 10 11.25 8.35L11.25 8.35Q11.25 7.3 12.3 7.3L12.3 7.3Q12.55 7.3 13.05 7.4L13.05 7.4Q13.65 9.5 14.05 10.25L14.05 10.25Q14.9 11.6 16.95 11.6L16.95 11.6Q23.1 11.6 32.05-5.2L32.05-5.2 41.05-21.25Q31.4-10.95 27.38-6.93 23.35-2.9 21.85-2L21.85-2Q18.85-0.2 16.9-0.2L16.9-0.2Q14.05-0.2 14.05-3.55L14.05-3.55Q14.05-7.55 17.45-11.8L17.45-11.8Q17.7-12.1 19.58-14.38 21.45-16.65 23.98-19.8 26.5-22.95 28.18-25.88 29.85-28.8 29.85-29.98 29.85-31.15 29.15-31.5L29.15-31.5Q27.7-32.25 25.85-32.25L25.85-32.25Q20.55-32.25 11.2-25.85L11.2-25.85Q7.3-23.2 5-19.7 2.7-16.2 2.7-13.25 2.7-10.3 5.55-9.55L5.55-9.55Q6.45-9.3 7.3-9.3L7.3-9.3Q9.85-9.3 12.95-11.5L12.95-11.5Q16.6-13.95 17.05-14.1L17.05-14.1Q16.55-12.25 13.1-10.05L13.1-10.05Q9.3-7.7 6-7.7L6-7.7Q5.55-7.7 4.33-7.88 3.1-8.05 1.9-9.7 0.7-11.35 0.7-13.7L0.7-13.7Q0.7-20.5 10.65-27.6L10.65-27.6Q13.55-29.7 18.3-31.4 23.05-33.1 25.98-33.1 28.9-33.1 30.43-32.18 31.95-31.25 31.95-29.23 31.95-27.2 29.15-22.93 26.35-18.65 20.3-11.3L20.3-11.3Q19.05-9.85 18-7.53 16.95-5.2 16.95-3.83 16.95-2.45 18.03-2.45 19.1-2.45 21.25-4L21.25-4Q27.35-8.35 33.43-14.55 39.5-20.75 42.35-24.95L42.35-24.95Q44.4-27.9 46.7-27.9L46.7-27.9Q47.5-27.9 47.5-27.4L47.5-27.4Q47.5-27.3 47.4-27L47.4-27Q41.1-16 30.25 2.2L30.25 2.2Q27.05 7.45 23.43 10.08 19.8 12.7 16.8 12.7ZM57.15-10.6L57.15-10.6Q57.15-8.85 53.8-4.75L53.8-4.75Q49.85 0.1 47.05 0.1L47.05 0.1 46.25 0.1Q44.95 0.1 44.2-1.25L44.2-1.25Q43.6-2.2 43.6-3.35L43.6-3.35Q43.6-6.35 47.97-11.78 52.35-17.2 55.05-17.2L55.05-17.2Q57.6-17.2 57.6-14.5L57.6-14.5Q57.6-13.8 57.35-12.7L57.35-12.7Q57.4-12.55 58.3-12.55 59.2-12.55 61.05-13.5L61.05-13.5Q61-12.65 57.1-11.05L57.1-11.05Q57.15-10.85 57.15-10.6ZM53.9-13.2L53.9-13.2Q52.2-13.2 49.07-9.2 45.95-5.2 45.95-3.3 45.95-1.4 47.15-1.4L47.15-1.4Q49.3-1.4 52.6-5.3 55.9-9.2 55.9-10.9L55.9-10.9Q55.1-11.35 53.9-13.2ZM72.15 0.3L72.15 0.3Q71.9 0.35 71.07 0.35 70.25 0.35 69.42-0.3 68.6-0.95 68.6-1.98 68.6-3 68.97-4.25 69.35-5.5 69.5-6.15L69.5-6.15Q63.75 0.55 60.5 0.55L60.5 0.55Q58.45 0.55 58.25-2L58.25-2Q58.25-2.2 58.25-2.35L58.25-2.35Q58.25-4.5 60.85-8.15L60.85-8.15Q59.4-6.85 57.9-5.15L57.9-5.15Q57.7-4.95 57.4-4.95L57.4-4.95Q57.2-4.95 57.2-5.2 57.2-5.45 57.65-6.05L57.65-6.05 64.55-14.15Q65.85-15.65 67.2-15.65 68.55-15.65 68.55-14.75L68.55-14.75Q68.55-14.4 68.25-14.1L68.25-14.1Q66.25-12.25 63.22-7.95 60.2-3.65 60.2-1.6L60.2-1.6Q60.2-0.7 60.8-0.7L60.8-0.7Q62.9-0.7 66.9-4.85L66.9-4.85Q68.3-6.25 72.1-11.03 75.9-15.8 77.1-15.8L77.1-15.8Q78.9-15.8 78.9-14.4L78.9-14.4Q78.9-13.9 76.8-11.5L76.8-11.5Q73.95-8.05 72.45-5.88 70.95-3.7 70.95-2.35 70.95-1 71.7-1L71.7-1Q72.05-1 72.5-1.2L72.5-1.2Q75.95-2.7 80.75-8.2L80.75-8.2Q81.05-8.55 81.35-8.55 81.65-8.55 81.65-8.22 81.65-7.9 81.3-7.5L81.3-7.5Q79.15-5 76.25-2.48 73.35 0.05 72.15 0.3ZM90.69-3.35L90.69-3.35Q90.69-8.75 93.89-14.05L93.89-14.05Q90.19-16.4 90.19-21L90.19-21Q90.19-26.55 95.09-30.85L95.09-30.85Q100.59-35.7 109.29-35.7L109.29-35.7Q113.29-35.7 117.89-34.55L117.89-34.55Q118.94-34.3 126.84-30.68 134.74-27.05 138.19-27.05L138.19-27.05Q140.49-27.05 141.64-28.35L141.64-28.35Q142.24-29 142.24-29.75 142.24-30.5 141.59-31.1L141.59-31.1Q141.24-31.6 141.24-31.75 141.24-31.9 141.52-31.9 141.79-31.9 142.47-31.03 143.14-30.15 143.14-28.98 143.14-27.8 141.57-26.73 139.99-25.65 137.59-25.65L137.59-25.65Q133.84-25.65 125.94-29.28 118.04-32.9 116.02-33.3 113.99-33.7 111.39-33.7L111.39-33.7Q101.04-33.7 95.09-27L95.09-27Q94.39-26.25 93.44-23.98 92.49-21.7 92.49-19.6L92.49-19.6Q92.49-16.7 94.54-15.1L94.54-15.1Q97.14-18.9 100.69-21.15 104.24-23.4 107.89-23.4L107.89-23.4Q112.39-23.4 112.39-19.9L112.39-19.9Q112.39-15.7 107.47-10.78 102.54-5.85 98.34-5.85L98.34-5.85Q95.64-5.85 95.64-8.15L95.64-8.15Q95.64-8.95 96.07-9.55 96.49-10.15 97.09-10L97.09-10 96.99-8.85Q96.99-8.1 99.29-8.1L99.29-8.1Q102.69-8.1 106.47-11.6 110.24-15.1 111.04-18.45L111.04-18.45Q111.24-19.2 111.24-19.8L111.24-19.8Q111.24-22.05 108.37-22.05 105.49-22.05 102.42-19.85 99.34-17.65 96.64-14.05L96.64-14.05Q96.84-13.95 98.19-13.65L98.19-13.65 101.19-13.55Q103.39-13.45 103.39-13.05L103.39-13.05Q103.39-12.35 101.29-12.35L101.29-12.35Q101.14-12.35 100.99-12.35L100.99-12.35Q97.94-12.35 95.99-13.1L95.99-13.1Q92.14-7.2 92.14-2.25L92.14-2.25Q92.14 4.15 97.09 4.15L97.09 4.15Q102.69 4.15 108.74-3.65L108.74-3.65 118.54-18.25Q124.04-26.25 128.09-26.45L128.09-26.45 129.99-26Q130.89-25.5 130.89-24.5 130.89-23.5 130.39-23.5L130.39-23.5 128.79-23.75Q125.34-23.75 119.94-16.3L119.94-16.3 109.99-2.4Q103.59 5.05 97.74 5.05L97.74 5.05Q93.74 5.05 92.22 2.9 90.69 0.75 90.69-3.35ZM132.54 0.25L132.54 0.25Q128.79 0.25 128.79-3.9L128.79-3.9Q128.79-6 129.89-8.5 130.99-11 132.29-12.7L132.29-12.7Q132.04-12.65 131.64-12.65L131.64-12.65Q130.44-12.65 129.64-14.35L129.64-14.35 125.94-9.55Q122.84-5.7 122.34-5.7L122.34-5.7Q122.09-5.7 122.09-5.9L122.09-5.9Q122.09-6.4 122.94-7.35L122.94-7.35Q127.29-12.4 129.09-15.9L129.09-15.9Q130.24-20.25 131.99-20.25L131.99-20.25Q133.14-20.25 133.14-19.25 133.14-18.25 131.89-16.7L131.89-16.7 130.69-15.1Q130.69-14.05 132.24-14.05L132.24-14.05Q133.14-14.05 134.24-14.7L134.24-14.7 135.54-15.5Q135.64-15.55 136.04-15.55 136.44-15.55 136.89-15.05 137.34-14.55 137.19-14.15L137.19-14.15 133.74-9.8Q130.54-5.7 130.54-3.33 130.54-0.95 132.74-0.95L132.74-0.95Q135.04-0.95 138.39-3.4L138.39-3.4Q140.39-4.85 142.04-6.65L142.04-6.65Q143.59-8.45 143.74-8.45L143.74-8.45Q144.09-8.45 144.09-8.08 144.09-7.7 143.64-7.2L143.64-7.2 142.04-5.4Q140.69-4 139.04-2.7L139.04-2.7Q135.09 0.25 132.54 0.25ZM158.64-14.95L158.64-14.95 159.34-15.1Q159.89-15.1 160.39-14.65 160.89-14.2 160.89-13.95 160.89-13.7 157.79-9.13 154.69-4.55 154.69-2.75L154.69-2.75Q154.69-2.6 154.74-2.45L154.74-2.45Q154.99-1.3 155.84-1.3L155.84-1.3Q158.44-1.3 165.34-9.9L165.34-9.9Q165.49-10.1 165.69-10.1 165.89-10.1 165.89-9.73 165.89-9.35 165.44-8.75L165.44-8.75Q159.04-0.2 155.69-0.2L155.69-0.2Q155.24-0.2 154.84-0.35L154.84-0.35Q152.64-1.2 152.64-3.65L152.64-3.65Q152.64-4.5 152.84-5.35L152.84-5.35 149.74-2.35Q146.79 0.25 145.46 0.25 144.14 0.25 142.94-0.6L142.94-0.6Q141.59-1.6 141.59-3.25L141.59-3.25Q141.59-6.9 146.69-11.98 151.79-17.05 156.04-17.05L156.04-17.05Q157.69-17.05 158.24-15.9L158.24-15.9Q158.39-15.5 158.49-15.23 158.59-14.95 158.64-14.95ZM143.69-2.65L143.69-2.65Q143.69-0.85 144.94-0.85L144.94-0.85Q147.84-0.85 152.84-7.2L152.84-7.2 158.14-14.5Q157.74-15.2 156.84-15.2L156.84-15.2Q153.79-15.2 148.74-10.48 143.69-5.75 143.69-2.65ZM176.18-19.65L176.18-19.65Q177.68-19.65 178.73-18.65 179.78-17.65 179.78-15.85L179.78-15.85Q179.78-11.9 173.23-5.95L173.23-5.95Q167.68-0.95 164.28 0.15L164.28 0.15Q163.73 0.15 162.83-0.45 161.93-1.05 161.93-1.55L161.93-1.55Q161.93-2.65 164.33-9 166.73-15.35 167.63-16.1L167.63-16.1Q167.83-16.3 168.28-16.3 168.73-16.3 169.23-15.83 169.73-15.35 169.78-14.7L169.78-14.7Q169.78-14.65 167.31-8.9 164.83-3.15 164.98-2.05L164.98-2.05Q167.13-2.7 172.66-7.3 178.18-11.9 178.18-15.55L178.18-15.55Q178.18-17.75 175.98-18.75L175.98-18.75Q175.63-18.9 175.63-19.2L175.63-19.2Q175.63-19.65 176.18-19.65ZM180.23 0.65L180.23 0.65Q179.68 0.65 179.23 0.5L179.23 0.5Q176.03-0.4 176.03-3.1L176.03-3.1Q176.03-6.6 180.43-11.2 184.83-15.8 188.33-15.8L188.33-15.8Q189.48-15.8 190.21-15.18 190.93-14.55 190.93-13.65L190.93-13.65Q190.93-10.85 186.71-8.3 182.48-5.75 179.83-5.75L179.83-5.75Q179.43-5.75 179.13-5.85L179.13-5.85Q178.38-4.5 178.38-3L178.38-3Q178.38-0.4 180.86-0.4 183.33-0.4 187.28-3.75L187.28-3.75Q190.33-6.2 192.48-8.95L192.48-8.95Q192.93-9.55 193.26-9.55 193.58-9.55 193.58-9.25 193.58-8.95 193.18-8.4L193.18-8.4Q190.48-4.85 186.68-2.1 182.88 0.65 180.23 0.65ZM189.68-13.75L189.68-13.75Q189.68-14.35 188.41-14.35 187.13-14.35 184.78-12.4L184.78-12.4Q181.63-9.8 179.88-6.95L179.88-6.95Q180.18-6.85 180.53-6.85L180.53-6.85Q182.43-6.85 185.61-8.88 188.78-10.9 189.58-13.3L189.58-13.3Q189.68-13.55 189.68-13.75ZM192.48-2.5Q192.48-1 194.13-1 195.78-1 198.38-2.75 200.98-4.5 203.43-7.5L203.43-7.5Q204.03-8.3 204.38-8.3 204.73-8.3 204.73-8L204.73-8Q204.73-7.7 202.68-5.4L202.68-5.4Q197.68 0.1 194.33 0.1L194.33 0.1Q192.68 0.1 191.53-0.68 190.38-1.45 190.38-3.08 190.38-4.7 191.23-6.85L191.23-6.85Q192.68-10.25 195.88-15.4L195.88-15.4Q201.73-24.9 204.18-24.9L204.18-24.9Q204.68-24.9 205.2-24.53 205.73-24.15 205.78-23.7L205.78-23.7Q204.63-22.15 201.35-17.75 198.08-13.35 196.83-11.43 195.58-9.5 194.95-8.55 194.33-7.6 194.03-7.08 193.73-6.55 193.33-5.7L193.33-5.7Q192.48-4 192.48-2.5ZM211.08-1.45L211.08-1.45Q211.08 0.65 209.48 2.33 207.88 4 207.3 4 206.73 4 206.73 3.9 206.73 3.8 207.8 2.58 208.88 1.35 208.88 0.6 208.88-0.15 208.2-0.75 207.53-1.35 207.53-1.65L207.53-1.65Q207.53-3.15 208.98-3.15L208.98-3.15Q209.73-3.15 210.4-2.65 211.08-2.15 211.08-1.45ZM253.92-1.35L253.92-1.35Q253.92 2 257.27 2L257.27 2Q261.77 2 268.12-4.5L268.12-4.5Q273.87-10.3 276.9-16.32 279.92-22.35 279.92-25.5L279.92-25.5Q279.92-26 279.82-26.5L279.82-26.5Q278.72-26.5 277.57-27.65L277.57-27.65 277.57-27.6Q276.82-28.2 276.82-28.83 276.82-29.45 277.32-29.85 277.82-30.25 278.62-30.25 279.42-30.25 279.75-29.63 280.07-29 280.57-28.5 281.07-28 281.02-27.8L281.02-27.8Q281.32-27.35 281.95-27.35 282.57-27.35 283.37-27.95 284.17-28.55 284.65-28.55 285.12-28.55 285.12-28.25L285.12-28.25Q285.12-27.7 284.17-27.2L284.17-27.2Q283.67-26.8 282.97-26.75L282.97-26.75 281.37-26.75Q281.97-24.7 281.97-23.8L281.97-23.8Q281.97-19.8 278.15-13.4 274.32-7 268.32-2.05L268.32-2.05Q262.27 3.05 257.35 3.05 252.42 3.05 252.42-1.75L252.42-1.75Q252.42-5.55 255.62-12.6L255.62-12.6 259.22-20.45 254.32-16.65Q252.02-14.75 249.65-12.48 247.27-10.2 241.37-3.1L241.37-3.1 235.57 4Q234.17 5.6 233.07 5.6L233.07 5.6Q232.22 5.6 232.22 4.5 232.22 3.4 233.12 1.65L233.12 1.65 242.77-12.25Q251.52-25.1 251.52-28.55L251.52-28.55Q251.52-30.45 248.02-30.45L248.02-30.45Q243.77-30.45 236.17-25.25L236.17-25.25Q232.07-22.45 228.97-18.23 225.87-14 225.87-11.23 225.87-8.45 229.57-8.45L229.57-8.45Q233.02-8.45 236.67-11.65L236.67-11.65Q237.97-12.75 238.17-12.75 238.37-12.75 238.32-12.4L238.32-12.4Q237.77-10.5 234.25-8.78 230.72-7.05 228.02-7.05L228.02-7.05Q227.32-7.05 227.07-7.1L227.07-7.1 227.02-7.1Q223.02-7.95 223.02-11.05 223.02-14.15 226.47-18.5L226.47-18.5Q232.57-26.2 242.17-29.95L242.17-29.95Q247.12-31.85 250.32-31.85L250.32-31.85Q254.27-31.85 254.27-29.25L254.27-29.25Q254.27-23.85 240.67-5.8L240.67-5.8Q236.12 0.25 236.07 0.25L236.07 0.25Q236.22 0.25 241.3-5.4 246.37-11.05 250.92-15.05L250.92-15.05Q252.67-16.6 256.97-20.75L256.97-20.75Q259.22-22.85 261.82-24.55L261.82-24.55Q262.47-24.95 263.7-24.95 264.92-24.95 265.37-24.25L265.37-24.25Q260.77-18.55 257.35-11.48 253.92-4.4 253.92-1.35ZM283.02-26.75L282.97-26.75 283.02-26.75ZM281.57 0.65L281.57 0.65Q281.02 0.65 280.57 0.5L280.57 0.5Q277.37-0.4 277.37-3.1L277.37-3.1Q277.37-6.6 281.77-11.2 286.17-15.8 289.67-15.8L289.67-15.8Q290.82-15.8 291.54-15.18 292.27-14.55 292.27-13.65L292.27-13.65Q292.27-10.85 288.04-8.3 283.82-5.75 281.17-5.75L281.17-5.75Q280.77-5.75 280.47-5.85L280.47-5.85Q279.72-4.5 279.72-3L279.72-3Q279.72-0.4 282.19-0.4 284.67-0.4 288.62-3.75L288.62-3.75Q291.67-6.2 293.82-8.95L293.82-8.95Q294.27-9.55 294.59-9.55 294.92-9.55 294.92-9.25 294.92-8.95 294.52-8.4L294.52-8.4Q291.82-4.85 288.02-2.1 284.22 0.65 281.57 0.65ZM291.02-13.75L291.02-13.75Q291.02-14.35 289.74-14.35 288.47-14.35 286.12-12.4L286.12-12.4Q282.97-9.8 281.22-6.95L281.22-6.95Q281.52-6.85 281.87-6.85L281.87-6.85Q283.77-6.85 286.94-8.88 290.12-10.9 290.92-13.3L290.92-13.3Q291.02-13.55 291.02-13.75ZM361.56-22.35L361.56-22.35Q361.56-19.8 359.01-16.75 356.46-13.7 351.29-11.8 346.11-9.9 341.24-9.9 336.36-9.9 333.51-11.15L333.51-11.15Q327.21-1.9 325.31 0L325.31 0Q319.91 5.4 312.41 5.4L312.41 5.4Q308.16 5.4 306.04 3.43 303.91 1.45 303.91-1.7L303.91-1.7Q303.91-6.05 307.41-9.9L307.41-9.9Q311.26-14.15 317.11-14.15L317.11-14.15Q319.51-14.15 321.16-13.05 322.81-11.95 322.81-9.7L322.81-9.7Q322.81-8.2 321.11-6.1 319.41-4 319.01-4L319.01-4Q318.91-4 318.91-4.2 318.91-4.4 319.06-4.6L319.06-4.6Q320.66-6.95 320.66-8.93 320.66-10.9 319.44-11.98 318.21-13.05 316.41-13.05L316.41-13.05Q312.21-13.05 308.99-9.22 305.76-5.4 305.76-1.5L305.76-1.5Q305.76 1 307.34 2.55 308.91 4.1 312.21 4.1L312.21 4.1Q318.36 4.1 322.76-0.05L322.76-0.05Q325.31-2.45 327.91-7.05L327.91-7.05 332.26-14.9Q335.46-20.05 339.71-30.2L339.71-30.2Q339.26-30.2 338.81-30.2L338.81-30.2Q332.06-30.2 325.26-28.73 318.46-27.25 314.96-24.5L314.96-24.5Q313.46-23.35 313.46-22.25 313.46-21.15 314.64-20.48 315.81-19.8 317.41-19.8 319.01-19.8 321.39-20.43 323.76-21.05 324.96-22.1L324.96-22.1Q325.46-22.5 325.66-22.5L325.66-22.5Q326.06-22.5 325.81-22.1L325.81-22.1Q324.01-20 320.36-18.95L320.36-18.95Q318.11-18.3 315.91-18.3 313.71-18.3 312.31-19.28 310.91-20.25 310.91-21.93 310.91-23.6 312.71-25.3L312.71-25.3Q316.11-28.6 324.86-30.2L324.86-30.2Q331.06-31.3 339.11-31.3L339.11-31.3Q339.76-31.3 340.46-31.3L340.46-31.3Q341.56-32.25 342.46-32.25 343.36-32.25 343.36-31.55L343.36-31.55Q343.36-31.4 343.31-31.2L343.31-31.2Q351.06-30.65 355.86-28.6L355.86-28.6Q361.56-26.2 361.56-22.35ZM359.21-22.85L359.21-22.85Q359.21-26 354.11-28L354.11-28Q349.66-29.75 342.96-30.1L342.96-30.1 341.36-25.1Q339.46-20.4 334.06-12L334.06-12Q334.56-11.75 335.76-11.45L335.76-11.45Q337.76-11.1 338.86-11.1L338.86-11.1Q342.66-11.1 347.61-12.68 352.56-14.25 355.89-17.28 359.21-20.3 359.21-22.85ZM356.56-2.5Q356.56-1 358.21-1 359.86-1 362.46-2.75 365.06-4.5 367.51-7.5L367.51-7.5Q368.11-8.3 368.46-8.3 368.81-8.3 368.81-8L368.81-8Q368.81-7.7 366.76-5.4L366.76-5.4Q361.76 0.1 358.41 0.1L358.41 0.1Q356.76 0.1 355.61-0.68 354.46-1.45 354.46-3.08 354.46-4.7 355.31-6.85L355.31-6.85Q356.76-10.25 359.96-15.4L359.96-15.4Q365.81-24.9 368.26-24.9L368.26-24.9Q368.76-24.9 369.29-24.53 369.81-24.15 369.86-23.7L369.86-23.7Q368.71-22.15 365.44-17.75 362.16-13.35 360.91-11.43 359.66-9.5 359.04-8.55 358.41-7.6 358.11-7.08 357.81-6.55 357.41-5.7L357.41-5.7Q356.56-4 356.56-2.5ZM383.36-14.95L383.36-14.95 384.06-15.1Q384.61-15.1 385.11-14.65 385.61-14.2 385.61-13.95 385.61-13.7 382.51-9.13 379.41-4.55 379.41-2.75L379.41-2.75Q379.41-2.6 379.46-2.45L379.46-2.45Q379.71-1.3 380.56-1.3L380.56-1.3Q383.16-1.3 390.06-9.9L390.06-9.9Q390.21-10.1 390.41-10.1 390.61-10.1 390.61-9.73 390.61-9.35 390.16-8.75L390.16-8.75Q383.76-0.2 380.41-0.2L380.41-0.2Q379.96-0.2 379.56-0.35L379.56-0.35Q377.36-1.2 377.36-3.65L377.36-3.65Q377.36-4.5 377.56-5.35L377.56-5.35 374.46-2.35Q371.51 0.25 370.18 0.25 368.86 0.25 367.66-0.6L367.66-0.6Q366.31-1.6 366.31-3.25L366.31-3.25Q366.31-6.9 371.41-11.98 376.51-17.05 380.76-17.05L380.76-17.05Q382.41-17.05 382.96-15.9L382.96-15.9Q383.11-15.5 383.21-15.23 383.31-14.95 383.36-14.95ZM368.41-2.65L368.41-2.65Q368.41-0.85 369.66-0.85L369.66-0.85Q372.56-0.85 377.56-7.2L377.56-7.2 382.86-14.5Q382.46-15.2 381.56-15.2L381.56-15.2Q378.51-15.2 373.46-10.48 368.41-5.75 368.41-2.65ZM395.41-15.8L395.41-15.8Q396.76-15.8 396.76-14.75L396.76-14.75Q396.76-14.45 396.61-14.15L396.61-14.15Q392.11-7.9 391.21-4.7L391.21-4.7Q402.86-16.35 405.36-16.35L405.36-16.35Q405.61-16.4 405.81-16.4L405.81-16.4Q407.21-16.4 407.21-15.15L407.21-15.15Q407.21-14.9 407.11-14.65 407.01-14.4 405.11-11.95L405.11-11.95Q402.91-9.35 401.38-6.95 399.86-4.55 399.86-2.95 399.86-1.35 400.56-1.35L400.56-1.35Q402.76-1.35 408.21-7.4L408.21-7.4Q408.31-7.5 408.56-7.85L408.56-7.85Q409.31-8.75 409.46-8.75 409.61-8.75 409.61-8.25 409.61-7.75 408.91-6.95L408.91-6.95Q402.71 0.1 400.11 0.1L400.11 0.1Q397.66 0.1 397.66-2.6 397.66-5.3 399.66-8.8L399.66-8.8 402.86-14Q399.46-11.5 396.81-8.53 394.16-5.55 391.98-2.75 389.81 0.05 389.46 0.05L389.46 0.05Q388.71 0.05 388.28-0.58 387.86-1.2 387.86-2.13 387.86-3.05 388.51-4.6 389.16-6.15 390.16-8.35L390.16-8.35 387.16-5.2Q386.06-4.1 385.78-4.1 385.51-4.1 385.51-4.42 385.51-4.75 385.91-5.15L385.91-5.15Q387.76-7 389.11-8.7L389.11-8.7Q390.41-10.4 394.46-15.2L394.46-15.2Q394.91-15.8 395.41-15.8Z" opacity="1" transform="matrix(1,0,0,1,0,0)" fill="#000000" class="slogan-text-1" data-fill-palette-color="secondary" id="text-1"></path></svg></g></svg></g></svg></g></svg></g><g></g></svg></g><defs></defs></svg><rect width="380.35166077958917" height="119.31814750652929" fill="none" stroke="none" visibility="hidden"></rect></g></svg></g></svg>